<svg xmlns="http://www.w3.org/2000/svg" xmlns:xlink="http://www.w3.org/1999/xlink" width="1366" height="997" viewBox="0 0 1366 997">
  <defs>
    <clipPath id="clip-Ecom_3">
      <rect width="1366" height="997"/>
    </clipPath>
  </defs>
  <g id="Ecom_3" data-name="Ecom – 3" clip-path="url(#clip-Ecom_3)">
    <rect width="1366" height="997" fill="#f8f8f8"/>
    <rect id="Retângulo_1" data-name="Retângulo 1" width="1366" height="110" fill="#fff"/>
    <rect id="Retângulo_7" data-name="Retângulo 7" width="216" height="60" transform="translate(32 25)" fill="#0d9ad8"/>
    <rect id="Retângulo_13" data-name="Retângulo 13" width="1366" height="228" transform="translate(0 768)" fill="#010101"/>
    <rect id="Retângulo_22" data-name="Retângulo 22" width="918" height="379" rx="4" transform="translate(216 240)" fill="#fff"/>
    <path id="Retângulo_22_-_Contorno" data-name="Retângulo 22 - Contorno" d="M4,1A3,3,0,0,0,1,4V375a3,3,0,0,0,3,3H914a3,3,0,0,0,3-3V4a3,3,0,0,0-3-3H4M4,0H914a4,4,0,0,1,4,4V375a4,4,0,0,1-4,4H4a4,4,0,0,1-4-4V4A4,4,0,0,1,4,0Z" transform="translate(216 240)" fill="#d8d8d8"/>
    <rect id="Retângulo_26" data-name="Retângulo 26" width="324" height="58" rx="4" transform="translate(756 401)" fill="#0164fe"/>
    <rect id="Retângulo_23" data-name="Retângulo 23" width="378" height="58" rx="4" transform="translate(270 305)" fill="#fff"/>
    <path id="Retângulo_23_-_Contorno" data-name="Retângulo 23 - Contorno" d="M4,1A3,3,0,0,0,1,4V54a3,3,0,0,0,3,3H374a3,3,0,0,0,3-3V4a3,3,0,0,0-3-3H4M4,0H374a4,4,0,0,1,4,4V54a4,4,0,0,1-4,4H4a4,4,0,0,1-4-4V4A4,4,0,0,1,4,0Z" transform="translate(270 305)" fill="#d8d8d8"/>
    <rect id="Retângulo_24" data-name="Retângulo 24" width="378" height="58" rx="4" transform="translate(270 393)" fill="#fff"/>
    <path id="Retângulo_24_-_Contorno" data-name="Retângulo 24 - Contorno" d="M4,1A3,3,0,0,0,1,4V54a3,3,0,0,0,3,3H374a3,3,0,0,0,3-3V4a3,3,0,0,0-3-3H4M4,0H374a4,4,0,0,1,4,4V54a4,4,0,0,1-4,4H4a4,4,0,0,1-4-4V4A4,4,0,0,1,4,0Z" transform="translate(270 393)" fill="#d8d8d8"/>
    <rect id="Retângulo_25" data-name="Retângulo 25" width="378" height="58" rx="4" transform="translate(270 496)" fill="#0164fe"/>
    <path id="Linha_1" data-name="Linha 1" d="M.5,379h-1V0h1Z" transform="translate(702 240)" fill="#d8d8d8"/>
    <text id="Senha" transform="translate(323 428)" fill="rgba(0,0,0,0.5)" font-size="16" font-family="Raleway-Regular, Raleway"><tspan x="0" y="0">Senha</tspan></text>
    <text id="Email_CPF_ou_CPNJ" data-name="Email, CPF ou CPNJ" transform="translate(325 340)" fill="rgba(0,0,0,0.5)" font-size="16" font-family="Raleway-Regular, Raleway"><tspan x="0" y="0">Email, CPF ou CPNJ</tspan></text>
    <path id="Icon_awesome-user-alt" data-name="Icon awesome-user-alt" d="M10.077,11.337A5.668,5.668,0,1,0,4.409,5.668,5.67,5.67,0,0,0,10.077,11.337Zm5.039,1.26H12.947a6.852,6.852,0,0,1-5.739,0H5.039A5.038,5.038,0,0,0,0,17.635v.63a1.89,1.89,0,0,0,1.889,1.889H18.265a1.89,1.89,0,0,0,1.889-1.889v-.63A5.038,5.038,0,0,0,15.116,12.6Z" transform="translate(290 324)" fill="rgba(0,0,0,0.5)"/>
    <path id="Icon_awesome-lock" data-name="Icon awesome-lock" d="M15.625,8.75h-.937V5.938a5.937,5.937,0,1,0-11.875,0V8.75H1.875A1.875,1.875,0,0,0,0,10.625v7.5A1.875,1.875,0,0,0,1.875,20h13.75A1.875,1.875,0,0,0,17.5,18.125v-7.5A1.875,1.875,0,0,0,15.625,8.75Zm-4.062,0H5.938V5.938a2.813,2.813,0,0,1,5.625,0Z" transform="translate(290.5 412)" fill="rgba(0,0,0,0.5)"/>
    <text id="ENTrar" transform="translate(423 532)" fill="#fff" font-size="18" font-family="Raleway-Bold, Raleway" font-weight="700"><tspan x="0" y="0">ENTRAR</tspan></text>
    <text id="Primeiro_acesso_Cadastre-se" data-name="Primeiro acesso?Cadastre-se" transform="translate(938 426)" fill="#fff" font-size="16" font-family="Raleway-Bold, Raleway" font-weight="700"><tspan x="-74.736" y="0">PRIMEIRO ACESSO?</tspan><tspan x="-54.456" y="19">CADASTRE-SE</tspan></text>
    <path id="Icon_awesome-user-plus" data-name="Icon awesome-user-plus" d="M24.375,8.125h-2.5v-2.5A.627.627,0,0,0,21.25,5H20a.627.627,0,0,0-.625.625v2.5h-2.5a.627.627,0,0,0-.625.625V10a.627.627,0,0,0,.625.625h2.5v2.5A.627.627,0,0,0,20,13.75h1.25a.627.627,0,0,0,.625-.625v-2.5h2.5A.627.627,0,0,0,25,10V8.75A.627.627,0,0,0,24.375,8.125ZM8.75,10a5,5,0,1,0-5-5A5,5,0,0,0,8.75,10Zm3.5,1.25H11.6a6.8,6.8,0,0,1-5.7,0H5.25A5.251,5.251,0,0,0,0,16.5v1.625A1.875,1.875,0,0,0,1.875,20h13.75A1.875,1.875,0,0,0,17.5,18.125V16.5A5.251,5.251,0,0,0,12.25,11.25Z" transform="translate(823 420)" fill="#fff"/>
    <rect id="Retângulo_28" data-name="Retângulo 28" width="1366" height="60" transform="translate(0 110)" fill="#fff"/>
    <path id="Retângulo_28_-_Contorno" data-name="Retângulo 28 - Contorno" d="M1,1V59H1365V1H1M0,0H1366V60H0Z" transform="translate(0 110)" fill="#d8d8d8"/>
    <text id="Home_Acessar_conta" data-name="Home &gt; Acessar conta" transform="translate(32 155)" fill="rgba(0,0,0,0.5)" font-size="10" font-family="Raleway-Regular, Raleway"><tspan x="0" y="0">Home &gt; Acessar conta</tspan></text>
    <text id="Acesse_sua_conta" data-name="Acesse sua conta" transform="translate(32 136)" font-size="16" font-family="Raleway-Bold, Raleway" font-weight="700"><tspan x="0" y="0">Acesse sua conta</tspan></text>
  </g>
</svg>
